<svg xmlns="http://www.w3.org/2000/svg" xmlns:xlink="http://www.w3.org/1999/xlink" width="2000" zoomAndPan="magnify" viewBox="0 0 1500 1499.999933" height="2000" preserveAspectRatio="xMidYMid meet" version="1.0"><defs><clipPath id="ea27ccd498"><path d="M 136.1875 154 L 1363.9375 154 L 1363.9375 1345 L 136.1875 1345 Z M 136.1875 154 " clip-rule="nonzero"/></clipPath></defs><g clip-path="url(#ea27ccd498)"><path fill="#00BF63" d="M 542.589844 1344.648438 C 539.359375 1344.648438 536.125 1344.128906 533.101562 1342.980469 C 295.703125 1253.222656 136.1875 1022.421875 136.1875 768.679688 C 136.1875 430.1875 411.535156 154.871094 750.0625 154.871094 C 1088.59375 154.871094 1363.9375 430.1875 1363.9375 768.679688 C 1363.9375 1022.421875 1204.421875 1253.222656 967.027344 1342.980469 C 960.457031 1345.484375 953.054688 1345.273438 946.589844 1342.253906 C 940.128906 1339.4375 935.125 1334.015625 932.621094 1327.449219 L 800.527344 977.59375 C 795.3125 963.832031 802.195312 948.402344 816.058594 943.191406 C 888.3125 915.984375 936.894531 845.824219 936.894531 768.679688 C 936.894531 665.683594 853.070312 581.871094 750.0625 581.871094 C 647.058594 581.871094 563.234375 665.683594 563.234375 768.679688 C 563.234375 845.824219 611.816406 915.984375 684.070312 943.191406 C 697.933594 948.402344 704.816406 963.832031 699.601562 977.59375 L 567.507812 1327.34375 C 565.003906 1334.015625 560 1339.332031 553.535156 1342.253906 C 550.097656 1343.921875 546.34375 1344.648438 542.589844 1344.648438 Z M 542.589844 1344.648438 " fill-opacity="1" fill-rule="nonzero"/></g></svg>
